<?xml version="1.0" standalone="no"?>
<!DOCTYPE svg PUBLIC "-//W3C//DTD SVG 20010904//EN"
 "http://www.w3.org/TR/2001/REC-SVG-20010904/DTD/svg10.dtd">
<svg version="1.0" xmlns="http://www.w3.org/2000/svg"
 width="256.000000pt" height="256.000000pt" viewBox="0 0 256.000000 256.000000"
 preserveAspectRatio="xMidYMid meet">

<g transform="translate(0.000000,256.000000) scale(0.100000,-0.100000)"
fill="#000000" stroke="none">
<path d="M1165 2136 c-172 -40 -317 -133 -404 -259 -161 -235 -161 -523 1
-761 89 -132 447 -604 473 -624 33 -26 91 -29 122 -7 12 9 89 104 171 213 381
506 412 561 427 755 9 111 -13 215 -71 335 -78 161 -215 278 -389 332 -89 28
-246 35 -330 16z m-12 -188 c8 -12 7 -21 -2 -32 -17 -20 -31 -20 -56 -2 -19
14 -19 14 0 35 21 24 43 24 58 -1z m417 -25 c25 -25 31 -37 21 -41 -7 -2 -21
-13 -29 -23 -19 -22 -42 -25 -42 -5 0 8 -10 16 -22 18 -28 4 -35 28 -10 35 11
3 23 16 26 29 8 32 15 30 56 -13z m-318 -89 c-13 -9 -19 -9 -28 4 -18 25 -48
7 -41 -26 5 -24 -1 -31 -44 -61 -49 -33 -64 -66 -35 -77 8 -3 46 11 85 30 39
20 73 36 76 36 3 0 5 -24 5 -53 0 -47 -3 -55 -26 -67 -65 -35 -51 -85 16 -55
39 17 41 17 74 0 33 -18 66 -15 66 6 0 6 -15 24 -32 39 -30 27 -33 33 -30 80
l4 50 66 -35 c72 -38 97 -43 106 -20 8 23 -1 37 -48 72 -31 22 -45 41 -48 62
-2 16 -1 28 4 25 4 -3 8 -11 8 -18 0 -7 24 -22 53 -34 41 -15 64 -18 98 -12
49 8 101 6 141 -4 37 -11 68 8 61 36 -3 15 6 6 25 -22 102 -157 108 -402 15
-569 -56 -101 -154 -194 -255 -240 -107 -50 -157 -61 -265 -61 -106 0 -183 18
-282 68 -129 64 -239 188 -286 321 -36 102 -36 296 0 358 9 16 14 20 11 11 -4
-15 1 -18 32 -17 33 1 34 2 12 9 l-25 8 27 1 c15 1 32 9 37 19 7 14 4 17 -20
19 -15 1 -31 -2 -34 -8 -12 -18 -25 2 -15 22 6 11 15 17 21 14 5 -4 9 -1 9 6
0 8 4 8 16 -1 12 -11 15 -11 12 1 -3 14 2 16 52 18 17 1 32 11 43 31 15 25 24
30 57 30 31 0 40 -4 46 -22 17 -57 69 -52 137 12 28 27 56 50 60 50 13 0 37
27 38 42 1 7 5 -5 9 -27 6 -31 4 -42 -8 -51z m136 23 c9 3 7 -2 -4 -16 -13
-15 -21 -18 -31 -9 -20 17 -17 41 5 30 9 -5 23 -7 30 -5z m-583 -157 c3 -5 1
-10 -4 -10 -6 0 -11 5 -11 10 0 6 2 10 4 10 3 0 8 -4 11 -10z m526 -890 c21
-12 25 -50 9 -81 -21 -39 -100 -12 -100 34 0 45 48 70 91 47z"/>
<path d="M1800 1680 c0 -5 7 -10 16 -10 8 0 12 5 9 10 -3 6 -10 10 -16 10 -5
0 -9 -4 -9 -10z"/>
<path d="M1702 1473 c-19 -37 -21 -70 -7 -89 23 -30 18 -44 -15 -44 -29 0 -40
13 -20 25 24 15 7 85 -21 85 -23 0 -37 -46 -20 -71 17 -29 13 -43 -16 -56 -33
-16 -40 -10 -24 21 16 29 11 55 -12 70 -14 8 -20 8 -27 -4 -13 -20 -13 -70 0
-70 6 0 10 -6 10 -14 0 -9 -12 -16 -32 -18 -17 -2 -33 -9 -36 -15 -3 -10 36
-13 175 -13 l178 1 -33 29 c-18 17 -41 30 -52 30 -24 0 -26 22 -5 40 18 15 20
81 3 98 -17 17 -36 15 -46 -5z"/>
<path d="M885 1392 c-46 -22 -69 -45 -84 -85 l-11 -27 155 0 c85 0 155 3 155
6 0 10 -63 84 -85 98 -38 25 -86 28 -130 8z"/>
<path d="M1800 785 c0 -14 5 -25 11 -25 6 0 8 7 5 17 -4 9 -1 20 6 25 10 6 8
8 -4 8 -13 0 -18 -8 -18 -25z"/>
<path d="M2012 780 c0 -14 2 -19 5 -12 2 6 2 18 0 25 -3 6 -5 1 -5 -13z"/>
<path d="M1737 760 c-3 -11 -1 -20 4 -20 5 0 9 9 9 20 0 11 -2 20 -4 20 -2 0
-6 -9 -9 -20z"/>
<path d="M1897 753 c-4 -3 -7 -11 -7 -17 0 -6 5 -5 12 2 6 6 9 14 7 17 -3 3
-9 2 -12 -2z"/>
<path d="M1160 393 c-85 -5 -102 -11 -75 -26 12 -7 80 -11 175 -11 175 -1 278
10 262 26 -11 11 -245 19 -362 11z"/>
</g>
</svg>
